<mxfile host="app.diagrams.net" agent="Mozilla/5.0 (X11; Linux x86_64) AppleWebKit/537.36 (KHTML, like Gecko) Chrome/129.0.0.0 Safari/537.36" version="24.7.17">
  <diagram name="Page-1" id="-YSvRkiMB3kbTjLVqd1g">
    <mxGraphModel dx="1834" dy="1188" grid="0" gridSize="10" guides="1" tooltips="1" connect="1" arrows="1" fold="1" page="0" pageScale="1" pageWidth="827" pageHeight="1169" math="0" shadow="0">
      <root>
        <mxCell id="0" />
        <mxCell id="1" parent="0" />
        <mxCell id="xUw8YhvnMwWjDfX-TATp-1" value="AWS Cloud" style="points=[[0,0],[0.25,0],[0.5,0],[0.75,0],[1,0],[1,0.25],[1,0.5],[1,0.75],[1,1],[0.75,1],[0.5,1],[0.25,1],[0,1],[0,0.75],[0,0.5],[0,0.25]];outlineConnect=0;gradientColor=none;html=1;whiteSpace=wrap;fontSize=12;fontStyle=0;container=1;pointerEvents=0;collapsible=0;recursiveResize=0;shape=mxgraph.aws4.group;grIcon=mxgraph.aws4.group_aws_cloud_alt;strokeColor=#232F3E;fillColor=none;verticalAlign=top;align=left;spacingLeft=30;fontColor=#232F3E;dashed=0;" vertex="1" parent="1">
          <mxGeometry x="-288" y="39" width="699" height="769" as="geometry" />
        </mxCell>
        <mxCell id="xUw8YhvnMwWjDfX-TATp-2" value="Region" style="sketch=0;outlineConnect=0;gradientColor=none;html=1;whiteSpace=wrap;fontSize=12;fontStyle=0;shape=mxgraph.aws4.group;grIcon=mxgraph.aws4.group_region;strokeColor=#879196;fillColor=none;verticalAlign=top;align=left;spacingLeft=30;fontColor=#879196;dashed=1;" vertex="1" parent="1">
          <mxGeometry x="-256" y="72" width="624" height="717" as="geometry" />
        </mxCell>
        <mxCell id="xUw8YhvnMwWjDfX-TATp-4" value="VPC (10.0.0.0/10)" style="points=[[0,0],[0.25,0],[0.5,0],[0.75,0],[1,0],[1,0.25],[1,0.5],[1,0.75],[1,1],[0.75,1],[0.5,1],[0.25,1],[0,1],[0,0.75],[0,0.5],[0,0.25]];outlineConnect=0;gradientColor=none;html=1;whiteSpace=wrap;fontSize=12;fontStyle=0;container=1;pointerEvents=0;collapsible=0;recursiveResize=0;shape=mxgraph.aws4.group;grIcon=mxgraph.aws4.group_vpc2;strokeColor=#8C4FFF;fillColor=none;verticalAlign=top;align=left;spacingLeft=30;fontColor=#AAB7B8;dashed=0;" vertex="1" parent="1">
          <mxGeometry x="-229" y="120" width="555" height="642" as="geometry" />
        </mxCell>
        <mxCell id="xUw8YhvnMwWjDfX-TATp-19" value="Availability zone" style="sketch=0;outlineConnect=0;gradientColor=none;html=1;whiteSpace=wrap;fontSize=12;fontStyle=0;shape=mxgraph.aws4.group;grIcon=mxgraph.aws4.group_availability_zone;strokeColor=#545B64;fillColor=none;verticalAlign=top;align=left;spacingLeft=30;fontColor=#545B64;dashed=1;" vertex="1" parent="xUw8YhvnMwWjDfX-TATp-4">
          <mxGeometry x="41" y="104" width="308" height="501" as="geometry" />
        </mxCell>
        <mxCell id="xUw8YhvnMwWjDfX-TATp-20" value="Private subnet (10.32.0.0/11)" style="points=[[0,0],[0.25,0],[0.5,0],[0.75,0],[1,0],[1,0.25],[1,0.5],[1,0.75],[1,1],[0.75,1],[0.5,1],[0.25,1],[0,1],[0,0.75],[0,0.5],[0,0.25]];outlineConnect=0;gradientColor=none;html=1;whiteSpace=wrap;fontSize=12;fontStyle=0;container=1;pointerEvents=0;collapsible=0;recursiveResize=0;shape=mxgraph.aws4.group;grIcon=mxgraph.aws4.group_security_group;grStroke=0;strokeColor=#00A4A6;fillColor=#E6F6F7;verticalAlign=top;align=left;spacingLeft=30;fontColor=#147EBA;dashed=0;" vertex="1" parent="xUw8YhvnMwWjDfX-TATp-4">
          <mxGeometry x="61" y="457" width="271" height="133" as="geometry" />
        </mxCell>
        <mxCell id="xUw8YhvnMwWjDfX-TATp-21" value="Public subnet (10.0.0.0/11)" style="points=[[0,0],[0.25,0],[0.5,0],[0.75,0],[1,0],[1,0.25],[1,0.5],[1,0.75],[1,1],[0.75,1],[0.5,1],[0.25,1],[0,1],[0,0.75],[0,0.5],[0,0.25]];outlineConnect=0;gradientColor=none;html=1;whiteSpace=wrap;fontSize=12;fontStyle=0;container=1;pointerEvents=0;collapsible=0;recursiveResize=0;shape=mxgraph.aws4.group;grIcon=mxgraph.aws4.group_security_group;grStroke=0;strokeColor=#7AA116;fillColor=#F2F6E8;verticalAlign=top;align=left;spacingLeft=30;fontColor=#248814;dashed=0;" vertex="1" parent="xUw8YhvnMwWjDfX-TATp-4">
          <mxGeometry x="63" y="163" width="267" height="245" as="geometry" />
        </mxCell>
        <mxCell id="xUw8YhvnMwWjDfX-TATp-29" value="Private subnet&lt;div&gt;NAT Gateway&lt;/div&gt;" style="sketch=0;outlineConnect=0;fontColor=#232F3E;gradientColor=none;fillColor=#8C4FFF;strokeColor=none;dashed=0;verticalLabelPosition=bottom;verticalAlign=top;align=center;html=1;fontSize=12;fontStyle=0;aspect=fixed;pointerEvents=1;shape=mxgraph.aws4.nat_gateway;" vertex="1" parent="xUw8YhvnMwWjDfX-TATp-4">
          <mxGeometry x="146" y="291" width="78" height="78" as="geometry" />
        </mxCell>
        <mxCell id="xUw8YhvnMwWjDfX-TATp-26" style="edgeStyle=orthogonalEdgeStyle;rounded=0;orthogonalLoop=1;jettySize=auto;html=1;dashed=1;dashPattern=12 12;startArrow=classic;startFill=1;flowAnimation=1;endArrow=none;endFill=0;" edge="1" parent="1" source="xUw8YhvnMwWjDfX-TATp-18" target="xUw8YhvnMwWjDfX-TATp-29">
          <mxGeometry relative="1" as="geometry">
            <Array as="points">
              <mxPoint x="63" y="137" />
              <mxPoint x="63" y="450" />
            </Array>
          </mxGeometry>
        </mxCell>
        <mxCell id="xUw8YhvnMwWjDfX-TATp-18" value="Internet&lt;div&gt;Gateway&lt;/div&gt;" style="sketch=0;outlineConnect=0;fontColor=#232F3E;gradientColor=none;fillColor=#8C4FFF;strokeColor=none;dashed=0;verticalLabelPosition=bottom;verticalAlign=top;align=center;html=1;fontSize=12;fontStyle=0;aspect=fixed;pointerEvents=1;shape=mxgraph.aws4.internet_gateway;" vertex="1" parent="1">
          <mxGeometry x="-38" y="79" width="78" height="78" as="geometry" />
        </mxCell>
        <mxCell id="xUw8YhvnMwWjDfX-TATp-25" style="edgeStyle=orthogonalEdgeStyle;rounded=0;orthogonalLoop=1;jettySize=auto;html=1;endArrow=oval;endFill=0;" edge="1" parent="1" source="xUw8YhvnMwWjDfX-TATp-22" target="xUw8YhvnMwWjDfX-TATp-21">
          <mxGeometry relative="1" as="geometry" />
        </mxCell>
        <mxCell id="xUw8YhvnMwWjDfX-TATp-22" value="Public subnet&lt;div&gt;route table&lt;/div&gt;" style="sketch=0;outlineConnect=0;fontColor=#232F3E;gradientColor=none;fillColor=#8C4FFF;strokeColor=none;dashed=0;verticalLabelPosition=bottom;verticalAlign=top;align=center;html=1;fontSize=12;fontStyle=0;aspect=fixed;pointerEvents=1;shape=mxgraph.aws4.route_table;" vertex="1" parent="1">
          <mxGeometry x="190" y="367" width="78" height="76" as="geometry" />
        </mxCell>
        <mxCell id="xUw8YhvnMwWjDfX-TATp-24" style="edgeStyle=orthogonalEdgeStyle;rounded=0;orthogonalLoop=1;jettySize=auto;html=1;endArrow=oval;endFill=0;" edge="1" parent="1" source="xUw8YhvnMwWjDfX-TATp-23" target="xUw8YhvnMwWjDfX-TATp-20">
          <mxGeometry relative="1" as="geometry" />
        </mxCell>
        <mxCell id="xUw8YhvnMwWjDfX-TATp-23" value="Private subnet&lt;div&gt;route table&lt;/div&gt;" style="sketch=0;outlineConnect=0;fontColor=#232F3E;gradientColor=none;fillColor=#8C4FFF;strokeColor=none;dashed=0;verticalLabelPosition=bottom;verticalAlign=top;align=center;html=1;fontSize=12;fontStyle=0;aspect=fixed;pointerEvents=1;shape=mxgraph.aws4.route_table;" vertex="1" parent="1">
          <mxGeometry x="190" y="606" width="78" height="76" as="geometry" />
        </mxCell>
        <mxCell id="xUw8YhvnMwWjDfX-TATp-28" style="edgeStyle=orthogonalEdgeStyle;rounded=0;orthogonalLoop=1;jettySize=auto;html=1;startArrow=classic;startFill=1;dashed=1;dashPattern=12 12;flowAnimation=1;" edge="1" parent="1" source="xUw8YhvnMwWjDfX-TATp-27" target="xUw8YhvnMwWjDfX-TATp-18">
          <mxGeometry relative="1" as="geometry" />
        </mxCell>
        <mxCell id="xUw8YhvnMwWjDfX-TATp-27" value="Internet" style="image;aspect=fixed;perimeter=ellipsePerimeter;html=1;align=center;shadow=0;dashed=0;spacingTop=3;image=img/lib/active_directory/internet_cloud.svg;" vertex="1" parent="1">
          <mxGeometry x="68" y="-241" width="219.05" height="138" as="geometry" />
        </mxCell>
      </root>
    </mxGraphModel>
  </diagram>
</mxfile>
